<svg xmlns="http://www.w3.org/2000/svg" width="683" height="683" viewBox="0 0 683 683">
  <path d="M683.168,341.582C683.168,152.934 530.234,0 341.582,0C152.934,0 0,152.934 0,341.582C0,512.078 124.91,653.391 288.211,679.016L288.211,440.324L201.48,440.324L201.48,341.582L288.211,341.582L288.211,266.328C288.211,180.719 339.207,133.43 417.23,133.43C454.605,133.43 493.695,140.102 493.695,140.102L493.695,224.164L450.621,224.164C408.188,224.164 394.957,250.496 394.957,277.508L394.957,341.582L489.691,341.582L474.547,440.324L394.957,440.324L394.957,679.016C558.254,653.391 683.168,512.078 683.168,341.582" fill="#fff"/>
</svg>
